<svg xmlns="http://www.w3.org/2000/svg" width="82.341" height="34.294" viewBox="0 0 82.341 34.294"><defs><style>.a{fill:#ea5252;}</style></defs><g transform="translate(-869.08 673.318)"><path class="a" d="M878.743-563.14a7.252,7.252,0,0,0-3.183-1.516c-1.364-.379-1.743-.682-1.743-1.25,0-.644.682-1.023,1.933-1.023a7.057,7.057,0,0,1,3.6,1.023v-4.206a9.6,9.6,0,0,0-3.979-.909c-3.676,0-6.29,2.274-6.29,5.457a4.8,4.8,0,0,0,1.364,3.486,5.792,5.792,0,0,0,3.069,1.478c1.857.455,2.16.682,2.16,1.4s-.758,1.137-2.046,1.137c-1.364,0-2.35-.341-4.32-1.44v4.585a10.858,10.858,0,0,0,4.775,1.061c3.752,0,6.253-2.16,6.253-5.381A5.312,5.312,0,0,0,878.743-563.14Z" transform="translate(0 -93.77)"/><path class="a" d="M1032.183-664.754a6.279,6.279,0,0,0-3.411.985v-9.549h-4.661v25.276h4.661V-657.1a4.216,4.216,0,0,1,.3-1.857,2.62,2.62,0,0,1,2.349-1.478,2.564,2.564,0,0,1,2.312,1.4,4.092,4.092,0,0,1,.341,1.971v9.019h4.623v-8.981c0-2.5-.265-3.6-1.137-4.926A6.508,6.508,0,0,0,1032.183-664.754Z" transform="translate(-142.11)"/><path class="a" d="M1226.465-571.022a8.644,8.644,0,0,0-8.678,8.64,8.628,8.628,0,0,0,8.64,8.6,8.622,8.622,0,0,0,8.6-8.488A8.646,8.646,0,0,0,1226.465-571.022Zm-.038,12.733a3.981,3.981,0,0,1-3.979-4.093,4,4,0,0,1,3.979-4.093,4.055,4.055,0,0,1,3.941,4.13A4.037,4.037,0,0,1,1226.427-558.289Z" transform="translate(-319.643 -93.77)"/><path class="a" d="M1456.313-631.945h-4.661v5.57h-3.893c-3.107,0-5.192,1.137-6.4,3.524-.568,1.137-.682,1.895-.682,4.434v8.3h4.623v-9.322c0-1.842.5-2.491,2.263-2.6h4.093v2.941c.038,3.411.076,3.941.493,4.926,1.061,2.615,3.448,4.093,6.632,4.093h.909v-4.358c-2.88-.038-3.486-.758-3.373-4.244V-621.9h3.373v-4.472h-3.373Z" transform="translate(-523.952 -37.925)"/><path class="a" d="M1688.174-565.111v7.617a11.079,11.079,0,0,1-.151,2.653,2.6,2.6,0,0,1-2.463,1.781,2.57,2.57,0,0,1-2.425-1.819,9.662,9.662,0,0,1-.152-2.691v-7.541h-4.509v7.579c0,3.07.114,3.979.72,5.267a6.216,6.216,0,0,0,5.684,3.524,6.2,6.2,0,0,0,3.3-.91v1.44a5.1,5.1,0,0,1-.379,2.539,2.743,2.743,0,0,1-2.425,1.516c-1.705,0-2.766-1.175-2.88-3.259h-4.623a7.591,7.591,0,0,0,1.4,4.282,7.558,7.558,0,0,0,6.139,3.3,7.416,7.416,0,0,0,6.025-3.107c1.137-1.592,1.364-2.577,1.364-6.139v-16.029Z" transform="translate(-741.376 -99.188)"/></g></svg>