<svg xmlns="http://www.w3.org/2000/svg" width="16.138" height="16.101" viewBox="0 0 16.138 16.101"><defs><style>.a{fill:#fff;}</style></defs><g transform="translate(-689 -250.442)"><path class="a" d="M803.6,254.488a4.426,4.426,0,0,0,.692,6.679.183.183,0,0,0,.229-.022,7.343,7.343,0,0,0,1.186-1.434.172.172,0,0,0-.068-.241,2.216,2.216,0,0,1-.849-.874h0a2.131,2.131,0,0,1-.181-1.456h0a4.715,4.715,0,0,1,1.382-1.836h0L808,253.24a2.073,2.073,0,0,1,2.945-.015,2.1,2.1,0,0,1,.03,2.959l-1.224,1.259a.214.214,0,0,0-.048.22,5.8,5.8,0,0,1,.162,2.841.025.025,0,0,0,.042.023l2.606-2.66a4.369,4.369,0,0,0-6.241-6.116l-2.67,2.725-.01.011Zm0,0" transform="translate(-108.618 0)"/><path class="a" d="M699.849,383.87h0l0,0a4.469,4.469,0,0,0,.387-3.175h0a4.386,4.386,0,0,0-1.768-2.522.241.241,0,0,0-.268.012,4.243,4.243,0,0,0-1.173,1.416.2.2,0,0,0,.078.256,2.191,2.191,0,0,1,.84.857h0a2.007,2.007,0,0,1,.213,1.318h0c-.094.722-.823,1.383-1.4,1.98h0l-2.01,2.052a2.093,2.093,0,0,1-2.99-2.929l1.228-1.263a.214.214,0,0,0,.05-.216,6.1,6.1,0,0,1-.175-2.833.025.025,0,0,0-.042-.022l-2.567,2.62a4.436,4.436,0,0,0,.032,6.21,4.382,4.382,0,0,0,6.178-.063c.584-.653,3.085-2.969,3.387-3.7Zm0,0" transform="translate(0 -122.328)"/></g></svg>