<svg xmlns="http://www.w3.org/2000/svg" width="93.865" height="93.497" viewBox="0 0 93.865 93.497"><defs><style>.a{fill:#127c90;}</style></defs><path class="a" d="M96.9,218.329a26.7,26.7,0,0,0-37.659.385l-14.6,14.9a26.585,26.585,0,0,0-3.916,5.106c-3.5,1.591-4.5,2.28-7.549,5.39l-14.6,14.9a26.6,26.6,0,0,0,19.012,45.238h.282a26.439,26.439,0,0,0,18.75-7.963l14.6-14.9a26.6,26.6,0,0,0,3.894-5.068c3.5-1.518,4.469-2.261,7.571-5.427l14.6-14.9a26.7,26.7,0,0,0-.385-37.659ZM45.029,271.273a26.073,26.073,0,0,0,6.419,4.671l-8.113,8.28a8.7,8.7,0,0,1-12.419-12.183l8.514-8.756a26.5,26.5,0,0,0,5.6,7.987Zm7.677,21.17a21.144,21.144,0,0,1-30.206-29.6l14.6-14.9c.125-.128.244-.248.36-.366a26.837,26.837,0,0,0,.082,9.776L26.989,268.208a14.172,14.172,0,0,0,10.127,24.1h.15a14.083,14.083,0,0,0,9.988-4.243l15.561-15.882c8.094-8.632,3.273-21.051-7.023-24.02.527-1.031,3.7-4.03,4.526-4.923,14.49,6.1,16.884,24.286,6.987,34.3Zm2.484-38.655a9.279,9.279,0,0,1,6.1,7.349c-3.426-.358-6.508-4-6.758-7.611.376.135.595.235.653.263Zm15.648-10.064a26.6,26.6,0,0,0-6.451-4.638l8.145-8.313a8.7,8.7,0,0,1,12.419,12.183l-8.514,8.756a26.5,26.5,0,0,0-5.6-7.987Zm22.529,8.425-14.6,14.9c-.125.128-.244.248-.36.366a26.842,26.842,0,0,0-.082-9.777l10.551-10.851a14.185,14.185,0,0,0-20.265-19.855L53.053,242.814c-7.979,8.12-3.375,21.864,7.206,23.711-.6,1.287-3.75,4.189-4.729,5.254a19.849,19.849,0,0,1-6.661-4.426,21.265,21.265,0,0,1-3.794-25.172c.026-.045.052-.091.073-.138a21.091,21.091,0,0,1,3.416-4.59l14.6-14.9a21.144,21.144,0,0,1,30.206,29.6Zm0,0" transform="translate(-11.002 -210.749)"/></svg>